{"title":"Sniper.Legacy.2014.DVDRip.XViD.AC3-GLY","uid":11024074,"size":1516754645,"categoryP":"video","categoryS":"movies","magnet":"?xt=urn:btih:d5639260234155dbe663b850bda2f5a2bf0d6784&amp;dn=Sniper.Legacy.2014.DVDRip.XViD.AC3-GLY&amp;tr=udp%3A%2F%2Ftracker.openbittorrent.com%3A80&amp;tr=udp%3A%2F%2Fopen.demonii.com%3A1337&amp;tr=udp%3A%2F%2Ftracker.coppersurfer.tk%3A6969&amp;tr=udp%3A%2F%2Fexodus.desync.com%3A6969","seeders":4,"leechers":0,"uploader":"Thhaque","files":3,"time":1410644859,"description":"Poster: &lt;a href=&quot;\nhttp://www.ultraimg.com/images/689ae8.jpg&quot; rel=&quot;nofollow&quot; target=&quot;_NEW&quot;&gt;\nhttp://www.ultraimg.com/images/689ae8.jpg&lt;/a&gt;\n\n\n\nSniper.Legacy.2014.DVDRip.XViD.AC3-GLY\n\n\n\nGeneral\n\n\n\nComplete name : Sniper.Legacy.2014.DVDRip.XViD.AC3-GLY.avi\n\nFormat : AVI\n\nFormat/Info : Audio Video Interleave\n\nFile size : 1.38 GiB\n\nDuration : 1h 38mn\n\nOverall bit rate : 2 009 Kbps\n\n\n\nVideo\n\n\n\nID : 0\n\nFormat : MPEG-4 Visual\n\nFormat profile : Advanced Simple@L5\n\nFormat settings, BVOP : 2\n\nFormat settings, QPel : No\n\nFormat settings, GMC : No warppoints\n\nFormat settings, Matrix : Default (H.263)\n\nCodec ID : XVID\n\nCodec ID/Hint : XviD\n\nDuration : 1h 38mn\n\nBit rate : 1 617 Kbps\n\nWidth : 720 pixels\n\nHeight : 400 pixels\n\nDisplay aspect ratio : 16:9\n\nFrame rate : 23.976 fps\n\nColor space : YUV\n\nChroma subsampling : 4:2:0\n\nBit depth : 8 bits\n\nScan type : Progressive\n\nCompression mode : Lossy\n\nBits/(Pixel*Frame) : 0.234\n\nStream size : 1.11 GiB (81%)\n\nWriting library : XviD 1.2.1 (UTC 2008-12-04)\n\n\nAudio\n\n\nID : 1\n\nFormat : AC-3\n\nFormat/Info : Audio Coding 3\n\nMode extension : CM (complete main)\n\nFormat settings, Endianness : Big\n\nCodec ID : 2000\n\nDuration : 1h 38mn\n\nBit rate mode : Constant\n\nBit rate : 384 Kbps\n\nChannel(s) : 6 channels\n\nChannel positions : Front: L C R, Side: L R, LFE\n\nSampling rate : 48.0 KHz\n\nBit depth : 16 bits\n\nCompression mode : Lossy\n\nStream size : 269 MiB (19%)\n\nAlignment : Aligned on interleaves\n\nInterleave, duration : 64 ms (1.53 video frames)\n\nInterleave, preload duration : 192 ms\n\n\n\nSource : Sniper.Legacy.2014.R1 NTSC DVD9 [THX]\n\n\n &lt;a href=&quot;\nhttp://www.imdb.com/title/tt3776288/&quot; rel=&quot;nofollow&quot; target=&quot;_NEW&quot;&gt;\nhttp://www.imdb.com/title/tt3776288/&lt;/a&gt;\n\n\nPlot\n\n\nA rogue assassin is taking out military leaders Brandon gets \n\nword that his father is one. He tries to track down the killer, \n\nfinds out that dad isn't dead and realizes that his superior \n\nofficers are using him as bait to track the killer.\n\nScreenshots:\n &lt;a href=&quot;\nhttp://www.ultraimg.com/images/15c575.jpg&quot; rel=&quot;nofollow&quot; target=&quot;_NEW&quot;&gt;\nhttp://www.ultraimg.com/images/15c575.jpg&lt;/a&gt;\n &lt;a href=&quot;\nhttp://www.ultraimg.com/images/293d98.jpg&quot; rel=&quot;nofollow&quot; target=&quot;_NEW&quot;&gt;\nhttp://www.ultraimg.com/images/293d98.jpg&lt;/a&gt;\n &lt;a href=&quot;\nhttp://www.ultraimg.com/images/3f824e.jpg&quot; rel=&quot;nofollow&quot; target=&quot;_NEW&quot;&gt;\nhttp://www.ultraimg.com/images/3f824e.jpg&lt;/a&gt;\n &lt;a href=&quot;\nhttp://www.ultraimg.com/images/4f1621.jp&quot; rel=&quot;nofollow&quot; target=&quot;_NEW&quot;&gt;\nhttp://www.ultraimg.com/images/4f1621.jp&lt;/a&gt;\n &lt;a href=&quot;\nhttp://www.ultraimg.com/images/50f899.jpg&quot; rel=&quot;nofollow&quot; target=&quot;_NEW&quot;&gt;\nhttp://www.ultraimg.com/images/50f899.jpg&lt;/a&gt;\n\n\nGreetz:\n\n &lt;a href=&quot;\nhttp://www.ultraimg.com/images/GLY1d6ae.gif&quot; rel=&quot;nofollow&quot; target=&quot;_NEW&quot;&gt;\nhttp://www.ultraimg.com/images/GLY1d6ae.gif&lt;/a&gt;","torrent":{"xt":"urn:btih:d5639260234155dbe663b850bda2f5a2bf0d6784","amp;dn":"Sniper.Legacy.2014.DVDRip.XViD.AC3-GLY","amp;tr":["udp%3A%2F%2Ftracker.openbittorrent.com%3A80","udp%3A%2F%2Fopen.demonii.com%3A1337","udp%3A%2F%2Ftracker.coppersurfer.tk%3A6969","udp%3A%2F%2Fexodus.desync.com%3A6969"],"infoHash":"d5639260234155dbe663b850bda2f5a2bf0d6784","infoHashBuffer":{"type":"Buffer","data":[213,99,146,96,35,65,85,219,230,99,184,80,189,162,245,162,191,13,103,132]},"announce":[],"urlList":[]}}